Coordinates
version=1
nRows=29
nColumns=22
inDegrees=yes

Units are S.I. units (second, meters, Newtons, ...)
If the header above contains a line with 'inDegrees', this indicates whether rotational values are in degrees (yes) or radians (no).

endheader
time	pelvis_tilt	pelvis_list	pelvis_rotation	pelvis_tx	pelvis_ty	pelvis_tz	hip_flexion_r	hip_adduction_r	hip_rotation_r	knee_angle_r	ankle_angle_r	subtalar_angle_r	hip_flexion_l	hip_adduction_l	hip_rotation_l	knee_angle_l	ankle_angle_l	subtalar_angle_l	lumbar_extension	lumbar_bending	lumbar_rotation
      3.70000000	     -1.72614043	     -4.98460782	    -81.95678810	      0.02230350	      0.99995734	      0.92689746	     19.27356317	      4.92101238	    -13.86334280	    -21.73574481	     -1.77764993	     -5.81121526	     -6.74313427	     -2.89506099	     -9.06020592	    -39.32289307	      6.86531600	     11.02827085	    -10.50384301	      3.76865082	     -4.04055211
      3.71000000	     -1.80749448	     -4.97675399	    -82.07134327	      0.02255466	      1.00137071	      0.93441438	     18.73833673	      5.11467423	    -13.74536773	    -21.59145116	     -1.35777168	     -5.89580715	     -6.03478760	     -3.20156423	     -8.69971419	    -41.03704289	      5.23993192	     11.34173391	    -10.33613110	      3.90230503	     -4.01108899
      3.72000000	     -1.88753443	     -4.92537051	    -82.17420504	      0.02277682	      1.00267517	      0.94167443	     18.24088004	      5.29682363	    -13.65201323	    -21.40533061	     -0.94958520	     -5.96593265	     -5.21636422	     -3.51508952	     -8.34973952	    -42.77093314	      3.79571696	     11.63162925	    -10.14588834	      4.02291783	     -3.96791126
      3.73000000	     -1.98060726	     -4.87596036	    -82.27054387	      0.02297741	      1.00392346	      0.94868546	     17.74301199	      5.48655147	    -13.59596492	    -21.18788090	     -0.60426696	     -6.01303248	     -4.34661398	     -3.86347728	     -8.04244810	    -44.49595263	      2.58576099	     11.84451490	     -9.98645762	      4.15812902	     -3.89358775
      3.74000000	     -2.07701325	     -4.75515225	    -82.35900358	      0.02311513	      1.00498072	      0.95545128	     17.32474254	      5.67942299	    -13.48692195	    -20.94461199	     -0.24599562	     -6.06146885	     -3.34921800	     -4.22429787	     -7.76007638	    -46.19702950	      1.72120749	     12.15823932	     -9.76948457	      4.27909220	     -3.81577446
      3.75000000	     -2.19988432	     -4.68132209	    -82.46827076	      0.02318182	      1.00601563	      0.96199149	     16.88268521	      5.90278666	    -13.41954806	    -20.71393158	      0.04740534	     -6.09879074	     -2.37372604	     -4.65941447	     -7.59872147	    -47.82436075	      1.17298726	     12.39444841	     -9.63658663	      4.43158411	     -3.65653804
      3.76000000	     -2.32537682	     -4.59470250	    -82.59489214	      0.02315411	      1.00695237	      0.96831825	     16.46507565	      6.13906941	    -13.30573074	    -20.47404845	      0.33566703	     -6.13709621	     -1.37169396	     -5.12600338	     -7.52184937	    -49.33915635	      0.98246130	     12.60854743	     -9.51616401	      4.57570412	     -3.45061715
      3.77000000	     -2.45023271	     -4.51227058	    -82.74528898	      0.02304242	      1.00783435	      0.97443463	     16.05635906	      6.38441773	    -13.15411079	    -20.23203942	      0.59179455	     -6.17233382	     -0.37808462	     -5.61913745	     -7.53230788	    -50.70089140	      1.11921397	     12.72369146	     -9.42719790	      4.71276005	     -3.18479717
      3.78000000	     -2.57855654	     -4.44883661	    -82.93135147	      0.02284070	      1.00869250	      0.98034026	     15.64584428	      6.64328221	    -12.97596930	    -19.99662353	      0.82035821	     -6.20222660	      0.57739426	     -6.14229432	     -7.63951472	    -51.88359345	      1.53596920	     12.65568454	     -9.38724656	      4.85101295	     -2.84783988
      3.79000000	     -2.70417255	     -4.36226072	    -83.15616331	      0.02256067	      1.00948294	      0.98603544	     15.27004609	      6.90724879	    -12.73863381	    -19.75374286	      1.01849764	     -6.21915818	      1.52943720	     -6.66637491	     -7.81739628	    -52.86838557	      2.17109346	     12.24606572	     -9.34261699	      4.97915069	     -2.44345354
      3.80000000	     -2.82061145	     -4.32737587	    -83.43731602	      0.02221593	      1.01030410	      0.99148995	     14.87518981	      7.16582168	    -12.49111776	    -19.55915236	      1.20277929	     -6.22184170	      2.37943930	     -7.18583195	     -8.08164328	    -53.63843958	      3.00642733	     11.49101788	     -9.39199770	      5.10365345	     -1.95273578
      3.81000000	     -2.92815524	     -4.30118427	    -83.77318226	      0.02181220	      1.01112686	      0.99673696	     14.47934395	      7.42130566	    -12.19863346	    -19.36020000	      1.34758381	     -6.21334969	      3.16529558	     -7.67846427	     -8.39894150	    -54.18934190	      3.94429689	     10.58904156	     -9.47433152	      5.21683439	     -1.37975840
      3.82000000	     -3.01785857	     -4.27630541	    -84.15868842	      0.02139002	      1.01190930	      1.00172253	     14.11756575	      7.65148376	    -11.87610616	    -19.21008131	      1.48494329	     -6.19227164	      3.90152906	     -8.12343749	     -8.75571716	    -54.54553371	      4.91970773	      9.56554304	     -9.58772457	      5.31653385	     -0.74383324
      3.83000000	     -3.09186748	     -4.23549665	    -84.59833990	      0.02093324	      1.01264130	      1.00650456	     13.78632181	      7.86147137	    -11.52228084	    -19.07065950	      1.60368394	     -6.15846098	      4.59458579	     -8.51647576	     -9.14880994	    -54.70886063	      5.86961396	      8.56976942	     -9.69982556	      5.39633021	     -0.04616728
      3.84000000	     -3.15523028	     -4.19162188	    -85.06921938	      0.02048834	      1.01330029	      1.01100193	     13.49426796	      8.05137054	    -11.13382001	    -18.97896522	      1.74833538	     -6.11096464	      5.25448649	     -8.85227434	     -9.52913000	    -54.72299028	      6.74203858	      7.63853081	     -9.83761087	      5.47079553	      0.68067109
      3.85000000	     -3.20613694	     -4.12860133	    -85.57986847	      0.02004049	      1.01389378	      1.01532009	     13.23055270	      8.22047188	    -10.73335333	    -18.88872608	      1.87764861	     -6.05061234	      5.87764399	     -9.13452135	     -9.92386126	    -54.58375033	      7.51576438	      6.91526649	     -9.96192676	      5.53184671	      1.43735659
      3.86000000	     -3.26335944	     -4.05045041	    -86.11551881	      0.01960103	      1.01439379	      1.01940639	     13.00162724	      8.39184696	    -10.29734115	    -18.81225752	      2.00474963	     -6.01205711	      6.48679023	     -9.38127351	    -10.29437829	    -54.34252416	      8.17271682	      6.56065436	    -10.08423495	      5.60208802	      2.21394375
      3.87000000	     -3.29933997	     -3.97129466	    -86.65196222	      0.01922466	      1.01483343	      1.02329124	     12.79162089	      8.52665512	     -9.87833826	    -18.75592573	      2.14518285	     -5.94751851	      7.05877479	     -9.55581493	    -10.61411295	    -53.99562114	      8.75407506	      6.26017170	    -10.21437900	      5.65381941	      2.96668086
      3.88000000	     -3.33134805	     -3.88598116	    -87.18036515	      0.01889891	      1.01519606	      1.02698303	     12.60234874	      8.64703548	     -9.47171127	    -18.70769635	      2.29471976	     -5.87997806	      7.61563412	     -9.68167922	    -10.86514361	    -53.57813330	      9.27402040	      6.10276898	    -10.34218881	      5.70166048	      3.68872149
      3.89000000	     -3.35798832	     -3.79165693	    -87.69285128	      0.01863934	      1.01548488	      1.03049828	     12.43993859	      8.75173122	     -9.06776809	    -18.67449038	      2.45016097	     -5.80847084	      8.16339979	     -9.75724420	    -11.03208258	    -53.10188558	      9.75071608	      6.05940757	    -10.46021019	      5.74629505	      4.37282973
      3.90000000	     -3.37679362	     -3.68393213	    -88.17779032	      0.01844341	      1.01569536	      1.03384655	     12.30705210	      8.83825927	     -8.67916780	    -18.65123923	      2.61615178	     -5.74083374	      8.71751325	     -9.78419201	    -11.10102355	    -52.58813438	     10.20393099	      6.10387722	    -10.55975103	      5.78119353	      5.00221345
      3.91000000	     -3.38619847	     -3.56302381	    -88.62047999	      0.01832549	      1.01583781	      1.03704091	     12.20657152	      8.90283291	     -8.32294307	    -18.64271137	      2.79202876	     -5.68225438	      9.28220551	     -9.76257945	    -11.05652701	    -52.04535213	     10.64164633	      6.19932312	    -10.63686716	      5.80489396	      5.55950008
      3.92000000	     -3.38401110	     -3.42673175	    -89.01116550	      0.01828639	      1.01592086	      1.04009071	     12.14052135	      8.94394121	     -7.99844890	    -18.64767436	      2.97236587	     -5.62488637	      9.86454473	     -9.69347083	    -10.89218118	    -51.48312979	     11.05678307	      6.32397195	    -10.68689653	      5.81355874	      6.03130807
      3.93000000	     -3.37117023	     -3.27272454	    -89.33017499	      0.01834816	      1.01595759	      1.04301473	     12.10712349	      8.96122267	     -7.71413933	    -18.65744295	      3.15226963	     -5.56126989	     10.47250398	     -9.58121268	    -10.60114189	    -50.90945722	     11.43666342	      6.45797044	    -10.70296593	      5.81148381	      6.39600797
      3.94000000	     -3.35653801	     -3.14806163	    -89.58447997	      0.01849476	      1.01601951	      1.04585332	     12.05897660	      8.96110953	     -7.51266771	    -18.68345307	      3.34874484	     -5.52521240	     11.04318841	     -9.45003558	    -10.22304783	    -50.32049433	     11.81541541	      6.51546196	    -10.73982266	      5.80522273	      6.68504163
      3.95000000	     -3.33760111	     -3.02395199	    -89.76491486	      0.01873449	      1.01608694	      1.04860679	     12.01682730	      8.94678446	     -7.34146346	    -18.70572214	      3.53607935	     -5.48085910	     11.61448487	     -9.29786944	     -9.76075411	    -49.72555592	     12.14971361	      6.50649597	    -10.76265643	      5.79620945	      6.87451350
      3.96000000	     -3.32167464	     -2.92234841	    -89.88499378	      0.01904595	      1.01618929	      1.05129073	     11.95283097	      8.92661857	     -7.20736041	    -18.71829610	      3.71578314	     -5.43791286	     12.15752580	     -9.14512928	     -9.25568953	    -49.13024344	     12.46182051	      6.41356506	    -10.80153999	      5.78976848	      6.98674587
      3.97000000	     -3.31088093	     -2.81727378	    -89.94689833	      0.01941605	      1.01629850	      1.05390745	     11.89284365	      8.90755152	     -7.08842102	    -18.71788315	      3.87811640	     -5.37577583	     12.70318506	     -8.99971029	     -8.73253991	    -48.53870934	     12.73364396	      6.17671295	    -10.82513231	      5.78796689	      7.02866216
      3.98000000	     -3.30466438	     -2.75836231	    -89.97527459	      0.01982098	      1.01648596	      1.05647926	     11.78226328	      8.88905471	     -7.00120565	    -18.70858677	      4.04134943	     -5.33442193	     13.18144225	     -8.86880215	     -8.23749087	    -47.93831875	     13.04214262	      5.91995187	    -10.89668298	      5.78626261	      7.04466630
